<svg width="40" height="41" viewBox="0 0 40 41" fill="none" xmlns="http://www.w3.org/2000/svg">
<path d="M26.6667 5.5H27C29.8003 5.5 31.2004 5.5 32.27 6.04497C33.2108 6.52433 33.9757 7.28924 34.455 8.23005C35 9.29961 35 10.6997 35 13.5V13.8333M13.3333 5.5H13C10.1997 5.5 8.79961 5.5 7.73005 6.04497C6.78924 6.52433 6.02433 7.28924 5.54497 8.23005C5 9.29961 5 10.6997 5 13.5V13.8333M5 27.1667V27.5C5 30.3003 5 31.7004 5.54497 32.77C6.02433 33.7108 6.78924 34.4757 7.73005 34.955C8.79961 35.5 10.1997 35.5 13 35.5H13.3333M26.6667 35.5H27C29.8003 35.5 31.2004 35.5 32.27 34.955C33.2108 34.4757 33.9757 33.7108 34.455 32.77C35 31.7004 35 30.3003 35 27.5V27.1667M12.5 13.8333V16.3333M27.5 13.8333V16.3333M18.3333 21.5002C19.6667 21.5002 20.8333 20.3335 20.8333 19.0002V13.8333M25.3337 25.5368C22.3337 28.5368 17.5003 28.5368 14.5003 25.5368" stroke="#7F9CDE" stroke-width="3" stroke-linecap="round" stroke-linejoin="round"/>
</svg>
