<svg width="40" height="41" viewBox="0 0 40 41" fill="none" xmlns="http://www.w3.org/2000/svg">
<path d="M2.19291 26.7949C1.89472 26.8919 1.60847 26.8676 1.33414 26.7222C1.05982 26.5767 0.868983 26.3282 0.761638 25.9766C0.415749 24.7037 0.189132 23.4792 0.0817867 22.3033C-0.0136311 21.1152 -0.0255583 19.9999 0.046005 18.9573C0.0817867 18.6179 0.207023 18.3512 0.421713 18.1572C0.636402 17.9633 0.922656 17.8784 1.28047 17.9026C1.56673 17.9269 1.79931 18.0421 1.97821 18.2481C2.16905 18.4542 2.2585 18.7331 2.24658 19.0846C2.2108 20.3576 2.24658 21.4911 2.35392 22.4851C2.47319 23.4671 2.6521 24.4248 2.89065 25.3583C2.96221 25.6856 2.93239 25.9887 2.80119 26.2675C2.68192 26.5342 2.47916 26.71 2.19291 26.7949ZM1.36993 15.775C1.08367 15.6659 0.868983 15.4477 0.725857 15.1204C0.594657 14.7931 0.618512 14.387 0.79742 13.902C1.6204 11.6835 2.67596 9.73776 3.9641 8.06478C5.26416 6.3918 6.73718 4.99159 8.38313 3.86415C10.041 2.7367 11.8301 1.89415 13.7504 1.33649C15.6707 0.77883 17.6685 0.5 19.7438 0.5C21.4613 0.5 23.0357 0.675784 24.467 1.02735C25.9102 1.3668 27.3176 1.97295 28.6892 2.84581C28.9636 3.01553 29.1604 3.22162 29.2796 3.46409C29.3989 3.69442 29.387 3.97325 29.2438 4.30058C29.1007 4.6279 28.8681 4.80368 28.5461 4.82793C28.2241 4.85217 27.8841 4.76731 27.5263 4.57334C26.4648 3.97932 25.2959 3.5247 24.0197 3.2095C22.7554 2.8943 21.3301 2.7367 19.7438 2.7367C17.3703 2.7367 15.0803 3.20344 12.8737 4.13691C10.6672 5.05827 8.6992 6.42817 6.96976 8.24663C5.24031 10.053 3.89253 12.3018 2.92643 14.9931C2.79523 15.3568 2.58054 15.6053 2.28236 15.7387C1.98418 15.872 1.68003 15.8841 1.36993 15.775ZM38.9765 22.5397C38.6664 22.5397 38.4159 22.4306 38.225 22.2124C38.0342 21.982 37.9149 21.7032 37.8672 21.3759C37.581 18.1148 36.8475 15.3447 35.6667 13.0655C34.4859 10.7864 32.995 8.78004 31.1939 7.04645C30.9196 6.79186 30.7765 6.51909 30.7646 6.22814C30.7526 5.92506 30.8421 5.66442 31.0329 5.4462C31.2118 5.22799 31.4504 5.1007 31.7486 5.06433C32.0587 5.02796 32.3509 5.13707 32.6252 5.39165C34.0088 6.65245 35.2015 8.03447 36.2034 9.53773C37.2172 11.041 38.0342 12.7564 38.6544 14.684C39.2866 16.6115 39.7338 18.824 39.9962 21.3213C40.0201 21.6608 39.9306 21.9517 39.7279 22.1942C39.537 22.4245 39.2866 22.5397 38.9765 22.5397ZM4.19668 32.0866C4.0297 31.8563 3.9641 31.5896 3.99988 31.2865C4.04759 30.9834 4.19071 30.7288 4.42926 30.5227C4.82286 30.1469 5.127 29.6862 5.34169 29.1407C5.56831 28.5952 5.68162 28.0072 5.68162 27.3768C5.68162 26.7464 5.5862 26.0918 5.39536 25.4129C5.20453 24.7219 5.01369 23.9763 4.82286 23.1762C4.64395 22.3639 4.55449 21.4547 4.55449 20.4485C4.55449 18.3512 4.94809 16.3751 5.73529 14.5203C6.52249 12.6655 7.60786 11.0349 8.99142 9.62866C10.3869 8.22238 11.9971 7.11918 13.8219 6.31906C15.6468 5.50682 17.591 5.1007 19.6544 5.1007C22.1114 5.1007 24.3298 5.5735 26.3097 6.51909C28.3016 7.46469 30.0072 8.81035 31.4265 10.5561C32.8459 12.3018 33.9372 14.3809 34.7006 16.7934C35.4639 19.2059 35.8456 21.8851 35.8456 24.831C35.8456 27.0616 35.6786 28.977 35.3446 30.5773C35.0226 32.1654 34.6886 33.4383 34.3427 34.396C34.2354 34.7112 34.0207 34.9234 33.6987 35.0325C33.3766 35.1416 33.0784 35.1356 32.8041 35.0143C32.5536 34.881 32.3747 34.6688 32.2674 34.3779C32.172 34.0869 32.1839 33.7838 32.3032 33.4686C32.6371 32.6685 32.9413 31.5471 33.2156 30.1045C33.5019 28.6618 33.645 26.9101 33.645 24.8491C33.6331 21.3577 33.0486 18.2966 31.8917 15.6659C30.7467 13.0352 29.1305 10.9864 27.0433 9.51955C24.956 8.05266 22.493 7.31921 19.6544 7.31921C17.9011 7.31921 16.2432 7.66472 14.6807 8.35574C13.1182 9.04675 11.7406 9.99841 10.5479 11.2107C9.36713 12.423 8.43681 13.8172 7.75695 15.3932C7.08903 16.9692 6.75507 18.6543 6.75507 20.4485C6.75507 21.4911 6.84452 22.37 7.02343 23.0852C7.20234 23.8005 7.38125 24.4915 7.56015 25.1583C7.73906 25.8129 7.82852 26.5585 7.82852 27.395C7.82852 28.3527 7.66154 29.268 7.32757 30.1409C6.99361 31.0016 6.5046 31.7108 5.86053 32.2684C5.5862 32.5109 5.28206 32.6079 4.94809 32.5594C4.62606 32.5109 4.37559 32.3533 4.19668 32.0866ZM8.56204 35.5235C8.21615 35.7175 7.90008 35.7599 7.61383 35.6508C7.32757 35.5538 7.12481 35.372 7.00554 35.1052C6.89819 34.8749 6.8803 34.6143 6.95187 34.3233C7.03536 34.0445 7.24408 33.7838 7.57805 33.5414C8.22212 33.0928 8.75884 32.5715 9.18822 31.9775C9.6176 31.3835 9.95156 30.6985 10.1901 29.9226C10.2975 29.5953 10.4823 29.3589 10.7447 29.2134C11.0071 29.068 11.2755 29.0437 11.5498 29.1407C11.8599 29.2498 12.0746 29.4438 12.1939 29.7226C12.3132 30.0014 12.331 30.2863 12.2476 30.5773C12.0806 31.2077 11.7943 31.8623 11.3888 32.5412C10.9833 33.208 10.5241 33.8141 10.0112 34.3597C9.51026 34.9052 9.0272 35.2932 8.56204 35.5235ZM12.4444 25.3583C12.5398 25.6856 12.5338 25.9948 12.4265 26.2857C12.331 26.5767 12.1402 26.7828 11.854 26.904C11.5081 27.0374 11.192 27.0434 10.9057 26.9222C10.6195 26.7888 10.4108 26.5524 10.2796 26.213C9.98138 25.4614 9.70705 24.6127 9.45658 23.6671C9.20611 22.7215 9.08088 21.679 9.08088 20.5394C9.08088 19.024 9.3552 17.6117 9.90385 16.3024C10.4525 14.981 11.2099 13.8293 12.176 12.8473C13.154 11.8532 14.2871 11.0774 15.5752 10.5197C16.8634 9.96204 18.2529 9.68321 19.7438 9.68321C20.6503 9.68321 21.521 9.79838 22.3559 10.0287C23.2027 10.2591 23.9303 10.55 24.5386 10.9016C24.8606 11.0955 25.0634 11.3501 25.1468 11.6653C25.2423 11.9684 25.2124 12.2594 25.0574 12.5382C24.95 12.7685 24.7652 12.9201 24.5028 12.9928C24.2523 13.0655 23.978 13.0292 23.6798 12.8837C23.155 12.6412 22.7137 12.4533 22.3559 12.32C21.9981 12.1745 21.6224 12.0775 21.2288 12.029C20.8471 11.9684 20.3521 11.9381 19.7438 11.9381C18.1694 11.9381 16.7441 12.32 15.4679 13.0837C14.1917 13.8475 13.1779 14.884 12.4265 16.1933C11.675 17.4905 11.2993 18.9392 11.2993 20.5394C11.2993 21.5699 11.4305 22.4791 11.6929 23.2671C11.9553 24.043 12.2058 24.74 12.4444 25.3583ZM26.596 15.4114C26.3813 15.0719 26.3038 14.7385 26.3634 14.4112C26.435 14.0839 26.6139 13.8414 26.9001 13.6838C27.1745 13.5383 27.4667 13.5141 27.7768 13.6111C28.0869 13.7081 28.3374 13.9142 28.5282 14.2294C29.0649 15.1143 29.542 16.0842 29.9595 17.1389C30.3889 18.1936 30.7228 19.4241 30.9614 20.8304C31.1999 22.2245 31.3192 23.8611 31.3192 25.7402C31.3192 28.286 30.9852 30.7046 30.3173 32.9958C29.6494 35.2871 28.7608 37.1965 27.6516 38.724C27.4488 38.9907 27.1804 39.1362 26.8465 39.1604C26.5125 39.1847 26.2263 39.0816 25.9877 38.8513C25.773 38.6452 25.6657 38.3845 25.6657 38.0693C25.6776 37.7663 25.773 37.4995 25.9519 37.2692C26.93 36.0327 27.7052 34.39 28.2777 32.3412C28.8622 30.2924 29.1544 28.1163 29.1544 25.8129C29.1544 23.6429 28.9397 21.6911 28.5103 19.9575C28.0809 18.2239 27.4428 16.7085 26.596 15.4114ZM12.3728 37.9602C12.1104 38.1784 11.8182 38.2754 11.4961 38.2512C11.186 38.2269 10.9296 38.0693 10.7268 37.7784C10.5599 37.5238 10.5002 37.251 10.5479 36.9601C10.5956 36.6812 10.7447 36.4267 10.9952 36.1963C12.2237 35.1901 13.16 33.9172 13.8041 32.3776C14.4601 30.8258 14.7821 29.1407 14.7702 27.3222C14.7582 26.4736 14.6569 25.6311 14.466 24.7946C14.2871 23.9581 14.1082 23.1459 13.9293 22.3579C13.7504 21.5699 13.6609 20.8243 13.6609 20.1212C13.6609 18.9695 13.9233 17.9572 14.4481 17.0843C14.9848 16.2115 15.7064 15.5326 16.6129 15.0477C17.5313 14.5627 18.563 14.3203 19.708 14.3203C21.3778 14.3203 22.7137 14.8052 23.7156 15.775C24.7175 16.7328 25.445 18.0542 25.8983 19.7393C26.3515 21.4123 26.5781 23.3216 26.5781 25.4674C26.59 27.5526 26.3634 29.5529 25.8983 31.4683C25.4331 33.3716 24.801 35.081 24.0018 36.5964C23.2146 38.1118 22.3439 39.3119 21.3898 40.1969C21.1274 40.4394 20.8292 40.5364 20.4952 40.4879C20.1732 40.4515 19.9227 40.3 19.7438 40.0333C19.5888 39.7787 19.5351 39.512 19.5828 39.2331C19.6305 38.9543 19.7677 38.7179 19.9943 38.5239C20.9008 37.7238 21.7058 36.6691 22.4095 35.3598C23.1133 34.0627 23.6559 32.5836 24.0376 30.9228C24.4193 29.2619 24.5803 27.492 24.5207 25.6129C24.473 23.9157 24.2881 22.3821 23.966 21.0122C23.6559 19.6423 23.155 18.5573 22.4632 17.7572C21.7834 16.957 20.865 16.557 19.708 16.557C18.5511 16.557 17.6148 16.9025 16.8992 17.5935C16.1835 18.2724 15.8257 19.1816 15.8257 20.3212C15.8257 20.9031 15.9152 21.5274 16.0941 22.1942C16.2849 22.861 16.4758 23.6126 16.6666 24.4491C16.8694 25.2735 16.9767 26.2312 16.9886 27.3222C17.0006 29.468 16.607 31.4744 15.8078 33.3413C15.0087 35.1962 13.8637 36.7358 12.3728 37.9602ZM16.6129 39.4332C16.3386 39.6393 16.0404 39.7181 15.7184 39.6696C15.3963 39.6332 15.1518 39.4756 14.9848 39.1968C14.8179 38.9422 14.7642 38.6634 14.8238 38.3603C14.8835 38.0693 15.0385 37.8269 15.289 37.6329C15.8854 37.1359 16.4519 36.5176 16.9886 35.7781C17.5253 35.0386 18.0084 34.1051 18.4378 32.9776C18.5451 32.6988 18.724 32.4927 18.9745 32.3594C19.2369 32.2139 19.5351 32.2018 19.869 32.323C20.1792 32.42 20.376 32.62 20.4594 32.9231C20.5429 33.214 20.5429 33.4868 20.4594 33.7414C20.1016 34.9052 19.547 36.0084 18.7956 37.051C18.0561 38.1057 17.3286 38.8998 16.6129 39.4332ZM21.5508 29.2498C21.4912 29.6014 21.3301 29.8681 21.0677 30.0499C20.8173 30.2318 20.531 30.2924 20.209 30.2318C19.875 30.1712 19.6365 30.0196 19.4933 29.7772C19.3621 29.5226 19.3264 29.2437 19.386 28.9407C19.5291 28.1648 19.6007 27.3707 19.6007 26.5585C19.6126 25.7341 19.553 24.8916 19.4218 24.0308C19.3025 23.1701 19.1057 22.2972 18.8314 21.4123C18.736 21.0728 18.7598 20.7758 18.9029 20.5212C19.0461 20.2545 19.2608 20.0727 19.547 19.9757C19.8452 19.8787 20.1255 19.909 20.3879 20.0666C20.6503 20.2121 20.8411 20.4667 20.9604 20.8304C21.2586 21.7517 21.4792 22.7034 21.6224 23.6853C21.7655 24.6552 21.8311 25.619 21.8191 26.5767C21.8072 27.5223 21.7178 28.4133 21.5508 29.2498Z" fill="#7F9CDE"/>
</svg>
